# xmcd CD database file
#
# Track frame offsets:
#	150
#	20272
#	43650
#	59992
#	81619
#	96519
#	113910
#
# Disc length: 1716 seconds
#
# Revision: 0
# Processed by: cddbd v1.5.1PL2 Copyright (c) Steve Scherf et al.
# Submitted via: CDex 1.50
#
DISCID=6406b207
DTITLE=Brazilian Love Affair - Just  in time
DYEAR=2001
DGENRE=Jazz
TTITLE0=Aqua de beber
TTITLE1=Some people just never learn
TTITLE2=S'wonderful
TTITLE3=Lover
TTITLE4=This can't be love
TTITLE5=Autumn leaves
TTITLE6=Just in time
EXTD=YEAR: 2001
EXTT0=
EXTT1=
EXTT2=
EXTT3=
EXTT4=
EXTT5=
EXTT6=
PLAYORDER=
